<svg xmlns="http://www.w3.org/2000/svg" width="48" height="48" viewBox="0 0 128 128"><desc>This is shape (source) for Clarity vector icon theme for gtk</desc><path d="M29.094 11.234c-3.184 0-5.719 2.567-5.719 5.75v94.032c0 3.183 2.535 5.75 5.719 5.75h69.812c3.184 0 5.719-2.567 5.719-5.75V40.359H83.594c-4.306 0-8.063-3.14-8.063-7.312V11.234zm50.437 0v21.813c0 1.714 1.632 3.312 4.063 3.312h21.031zm-5.687 39.282c5.622 0 10.187 5.777 10.187 12.875s-4.565 12.843-10.187 12.843-10.156-5.746-10.156-12.843c0-7.098 4.534-12.875 10.156-12.875m-23.031 2.75c4.604 0 8.343 4.75 8.343 10.562 0 5.813-3.74 10.5-8.343 10.5-4.605 0-8.313-4.687-8.313-10.5s3.708-10.562 8.313-10.562m8.406 24.5c.555-.01 1.103.453 1.687 1.343a6.8 6.8 0 0 0-2 2.094c-2.706 4.415-4.536 9.913-5.5 16.063H35.75c.38-7.006 1.99-13.266 4.719-17.72 1.037-1.691 2.588-1.8 3.968.032 1.645 2.181 3.9 3.5 6.376 3.5a7.55 7.55 0 0 0 6.5-3.687c.639-1.064 1.282-1.615 1.906-1.625m24.844 2.656c.76-.013 1.53.646 2.343 2.031 3.243 5.527 5.35 13.174 5.844 21.781H55.438c.464-8.554 2.448-16.187 5.78-21.625 1.267-2.066 3.159-2.205 4.844.032 2.008 2.663 4.759 4.25 7.782 4.25 3.096 0 6.165-1.52 7.937-4.47.78-1.298 1.52-1.987 2.281-2"/></svg>