<svg xmlns="http://www.w3.org/2000/svg" height="48" width="48" viewBox="0 0 512.001 512.001" xmlns:v="https://vecta.io/nano"><path d="M456.481 200.991c5.458-105.745-49.178-152.659-68.342-163.199l-8.258 16.516s-16.525-26.034-57.807-33.032v16.516S297.29 11.758 256.009 4.76H256h-.009c-41.281 6.999-66.065 33.032-66.065 33.032V21.275c-41.281 6.999-57.807 33.032-57.807 33.032l-8.258-16.516c-19.164 10.54-73.8 57.455-68.342 163.199C20.797 242.949 0 293.087 0 340.623c0 111.74 114.615 166.619 256.001 166.619s256.001-54.879 256.001-166.619c-.002-47.536-20.798-97.674-55.521-139.632z" fill="#7c665d"/><path d="M379.872 222.339c0 66.132-55.459 119.742-123.871 119.742S132.13 288.471 132.13 222.339s37.216-119.742 123.871-119.742 123.871 53.61 123.871 119.742z" fill="#9a8c88"/><path d="M355.088 408.145c-3.441 37.936-10.888 74.324-99.097 74.324s-95.656-36.387-99.097-74.324v-26.208h198.203l-.009 26.208z" fill="#c0c0c6"/><ellipse cx="256.001" cy="399.888" rx="74.323" ry="33.032" fill="#878791"/><g fill="#fff"><path d="M235.355 408.145h0c-11.355 0-20.645-9.29-20.645-20.645v-74.323c0-11.355 9.29-20.645 20.645-20.645h0c11.355 0 20.645 9.29 20.645 20.645V387.5c.001 11.355-9.29 20.645-20.645 20.645z"/><path d="M276.646 408.145h0c-11.355 0-20.645-9.29-20.645-20.645v-74.323c0-11.355 9.29-20.645 20.645-20.645h0c11.355 0 20.645 9.29 20.645 20.645V387.5c0 11.355-9.29 20.645-20.645 20.645z"/></g><path d="M256.008 152.145h-.007-.007c-77.53.005-140.38 78.158-140.38 174.562 0 31.038 2.001 56.521 5.713 77.485 2.253 12.731 14.12 21.671 26.959 20.148 60.295-7.155 72.62-45.087 72.62-59.313 0-39.462 17.548-51.093 35.097-51.093s35.097 11.629 35.097 51.093c0 14.226 12.324 52.158 72.62 59.314 12.838 1.524 24.705-7.418 26.958-20.148 3.711-20.963 5.713-46.447 5.713-77.485-.003-96.405-62.853-174.557-140.383-174.563z" fill="#d3d3d7"/><ellipse cx="256.001" cy="234.726" rx="74.323" ry="41.29" fill="#878791"/><g fill="#464655"><ellipse cx="90.839" cy="185.178" rx="16.516" ry="24.774"/><ellipse cx="421.162" cy="185.178" rx="16.516" ry="24.774"/><path d="M181.687 244.135h0c0 7.861 5.207 14.682 12.728 16.961 13.242 4.013 34.057 12.376 48.755 28.072a17.57 17.57 0 0 0 25.662.002c14.701-15.698 35.524-24.06 48.77-28.074 7.522-2.279 12.729-9.1 12.729-16.961h0a17.67 17.67 0 0 0-17.667-17.667h-113.31a17.67 17.67 0 0 0-17.667 17.667z"/></g></svg>