<svg xmlns="http://www.w3.org/2000/svg" width="48" height="48" viewBox="0 0 44 44" fill="#000" xmlns:v="https://vecta.io/nano"><path d="M16.941 28.571H2.824C1.271 28.571 0 27.255 0 25.713s1.273-2.856 2.824-2.857H8.49c1.545-.011 2.804-1.323 2.805-2.857V2.857C11.296 1.315 12.566.001 14.118 0s2.823 1.315 2.824 2.857v8.08c.001 1.52 1.337 2.856 2.823 2.857 1.552-.001 2.823-1.315 2.824-2.857v-8.08c0-1.542 1.271-2.856 2.822-2.857s2.823 1.315 2.824 2.857v34.286C28.234 38.685 26.963 40 25.411 40s-2.823-1.315-2.823-2.857v-2.857c0-3.154-2.53-5.715-5.647-5.715zm-.645 10.439c2.226 0 4.03-1.826 4.03-4.078s-1.804-4.078-4.03-4.078-4.03 1.826-4.03 4.078 1.804 4.078 4.03 4.078z"/></svg>