<svg xmlns="http://www.w3.org/2000/svg" width="48" height="48" viewBox="40 40 400 400" preserveAspectRatio="xMidYMid meet" xmlns:v="https://vecta.io/nano"><path transform="scale(1.3) translate(-10,-5)" d="M122.2 85.1c-6.5 3.2-11.1 10.9-13.9 23.1-2.1 9.3-2.4 46.4-.5 61.8 1.4 10.6 4.8 33.6 5.7 37.7.8 3.3 4.8 5.7 7.4 4.3 3.6-1.8 4-4 2.5-12-7.7-40-8.4-81.5-1.8-98 1.7-4.1 5.6-8 8-8 2.8 0 8.6 6.5 11.8 13.4 8 16.7 13.6 39.6 18.1 73.5 2.2 16.5 2.4 15.4-4.7 20.2-3.5 2.3-9.7 7.7-14 11.9-20.3 20.5-23.1 47.3-7.4 70.8 16 23.9 49.9 37.1 81.8 31.8 19.8-3.3 37.7-11.6 50.2-23.5 14.8-14.2 22.5-31.5 26.8-60.6 1.7-12.1 1.7-72.3-.1-85.5-2.6-19.7-7.6-34.4-13.3-39.7-2.7-2.6-8.8-5.3-11.9-5.3-6.9 0-14.2 8.4-17.8 20.7-2.2 7.4-5.1 22.8-5.1 27.4 0 3-1.4 4.6-2.6 2.8-1.4-2.4-9-4.9-14.9-4.9-7.2 0-13 2.4-16.8 7-1.5 1.8-2.9 3.1-3.1 2.9s-1.1-1.8-1.9-3.5c-2.8-5.5-7-9.6-12.2-12-8.2-3.9-17.8-2.7-23.7 2.8-1.7 1.6-3.2 2.7-3.3 2.6-.1-.2-1.2-4.6-2.5-9.8-6.9-28.5-16.3-47-26.3-51.9-5.5-2.7-9.1-2.7-14.5 0zM270.1 113c4.1 2.3 8.9 16.5 10.9 33 1.7 14 2.4 58.9 1.1 73.6-3.8 43.5-15.9 64.7-44.3 77.8-32 14.9-69.6 9.1-90.5-13.8-18-19.7-17.2-44.8 2.2-64.2 17.6-17.5 55.2-31.3 82.3-30.2 11.9.4 19.5 3.5 20 8 .7 5.7-7.8 16.3-20.3 25.6-10.3 7.6-10.8 7.7-15.6 4.2-5.7-4.1-12.7-6-22.1-6-10.9 0-16.2 1.5-20.9 6-3.4 3.3-3.9 4.2-3.9 8.3 0 4 .6 5.3 3.6 8.6 6.9 7.7 19.8 9.1 35.1 3.8 3.9-1.4 7.4-2.3 7.7-1.9 1 .9.7 8.8-.5 16.3-1.1 6.2-1 7.1.6 8.9 2.1 2.3 4.4 2.5 6.8.7 3.6-2.6 6-20.7 3.8-28.4-.9-3.1-.9-3.2 7.2-8.5 11-7.1 23.6-19.7 27-27 4.5-9.5 3.4-16.3-3.7-22.6-3.5-3.1-3.6-3.3-3.6-10.4 0-23.2 6.1-54.8 11.7-61 1.9-2.1 2.7-2.2 5.4-.8zm-82.8 37.9c6.3 2.4 11.7 13.9 11.7 24.9v5.8l-11.7 4-13.5 4.8c-2.5 1.1-3.2-2.7-3.2-16.9-.1-10.9.2-12.4 2.4-16.5 3.5-6.3 8.3-8.3 14.3-6.1zm45.7 8.6c3.2 1.7 5.8 7.5 6.2 14.2l.3 4.2-13.4.4-13.3.4.6-4.9c1.5-10.9 5.4-15.7 12.9-15.8 2.1 0 5.1.7 6.7 1.5zM203.2 233c2.1.6 4 1.5 4.3 2 .8 1.2-11.8 5-16.6 5-4.9 0-11.2-2.5-10.7-4.2 1.2-3.5 14.5-5.1 23-2.8z"/></svg>