<svg xmlns="http://www.w3.org/2000/svg" xmlns:v="https://vecta.io/nano" width="48" height="48" fill="none" viewBox="0 0 30 42"><g clip-path="url(#A)"><g fill-rule="evenodd" fill="#456b47"><path d="M24.584 16.046c0-.708-.68-1.433-1.662-1.433v-1.719c1.768 0 3.381 1.339 3.381 3.152V32.55c0 1.813-1.613 3.152-3.381 3.152h-2.407v-1.719h2.407c.982 0 1.662-.724 1.662-1.433V16.046zm-24.525 0c0-1.813 1.613-3.152 3.381-3.152v1.719c-.982 0-1.662.724-1.662 1.433V32.55c0 .708.68 1.433 1.662 1.433h2.292v1.719H3.44c-1.769 0-3.381-1.339-3.381-3.152V16.046zm5.891.159l.835-1.895 1.561.72-.777 1.765-1.183 2.614c-.88 1.76-1.366 3.51-1.068 5.197l.004.025.003.025c.313 2.716 1.657 4.909 4.107 6.614l-.982 1.411c-2.815-1.958-4.45-4.57-4.83-7.802-.38-2.201.278-4.338 1.228-6.239l1.102-2.436zm15.18 1.483l.51 1.092.004.008.003.008c.824 1.882 1.467 3.883 1.213 6.17l-.001.008h0c-.376 3.133-2.014 5.741-4.812 7.81L17.025 31.4c2.473-1.828 3.814-4.032 4.127-6.628.203-1.835-.298-3.499-1.076-5.28l-.483-1.033-1.484-3.366 1.605-.617 1.416 3.211z"/><path d="M4.469 17.252a.86.86 0 0 1 1.203-.176l16.16 12.034a.86.86 0 0 1 .176 1.203.86.86 0 0 1-1.203.176L4.645 18.454a.86.86 0 0 1-.176-1.203z"/><path d="M22.008 17.252a.86.86 0 0 1-.176 1.203L5.672 30.489a.86.86 0 0 1-1.203-.176.86.86 0 0 1 .176-1.203l16.16-12.034a.86.86 0 0 1 1.203.176z"/></g><path d="M18.11 11.232H8.368a.54.54 0 0 1-.573-.573v-1.49c0-1.605 1.261-2.751 2.751-2.751h5.272c1.605 0 2.751 1.261 2.751 2.751v1.375c.115.458-.115.688-.458.688z" fill="#77a872"/><g fill-rule="evenodd" fill="#456b47"><path d="M10.546 7.278c-1.039 0-1.891.785-1.891 1.891v1.203h9.054V9.169c0-1.039-.785-1.891-1.891-1.891h-5.272zm-3.61 1.891c0-2.103 1.669-3.61 3.61-3.61h5.272c2.103 0 3.61 1.669 3.61 3.61v1.285c.066.357.035.77-.229 1.122-.295.393-.735.516-1.089.516H8.368a1.43 1.43 0 0 1-1.023-.409c-.283-.283-.409-.656-.409-1.023v-1.49z"/><path d="M5.044 12.321c-.328 0-.516.188-.516.516v.63H21.72v-.63c0-.327-.188-.516-.516-.516H5.044zm-2.235.516a2.18 2.18 0 0 1 2.235-2.235h16.16a2.18 2.18 0 0 1 2.235 2.235v.917a1.43 1.43 0 0 1-.409 1.023 1.43 1.43 0 0 1-1.023.409H4.241a1.43 1.43 0 0 1-1.023-.409 1.43 1.43 0 0 1-.409-1.023v-.917zm4.929-7.221c0-3.111 2.448-5.559 5.559-5.559s5.559 2.448 5.559 5.559c0 .462-.141 1.128-.255 1.584l-.26 1.04-.959-.479c-.429-.215-.854-.368-1.22-.368h-5.845c-.433 0-.697.079-.974.287l-1.091.818-.267-1.337-.066-.32-.094-.464a4.21 4.21 0 0 1-.086-.76zm5.559-3.84c-2.161 0-3.84 1.678-3.84 3.84 0 .039.003.086.01.145.275-.063.557-.088.85-.088h5.845c.336 0 .661.057.96.14l.014-.198c0-2.161-1.678-3.84-3.84-3.84z"/></g><path d="M19.944 39.197H6.305c-1.146 0-2.063-.917-2.063-2.063v-2.751a2.3 2.3 0 0 1 2.292-2.292h13.181a2.3 2.3 0 0 1 2.292 2.292v2.751c0 1.146-.917 2.063-2.063 2.063z" fill="#77a872"/><path fill-rule="evenodd" d="M6.535 32.951a1.44 1.44 0 0 0-1.433 1.433v2.751c0 .671.532 1.203 1.203 1.203h13.639c.671 0 1.203-.532 1.203-1.203v-2.751a1.44 1.44 0 0 0-1.433-1.433H6.535zm-3.152 1.433a3.16 3.16 0 0 1 3.152-3.152h13.181a3.16 3.16 0 0 1 3.152 3.152v2.751c0 1.621-1.302 2.923-2.923 2.923H6.305c-1.621 0-2.923-1.302-2.923-2.923v-2.751z" fill="#456b47"/></g><defs><clipPath id="A"><path fill="#fff" d="M0 0h26.246v40H0z"/></clipPath></defs></svg>