<svg xmlns="http://www.w3.org/2000/svg" fill="#000000" width="48" height="48" viewBox="0 0 36 36" preserveAspectRatio="xMidYMid meet" xmlns:v="https://vecta.io/nano"><path d="M15 32h-4a1 1 0 0 1-1-1v-4a1 1 0 0 1 1-1h4a1 1 0 0 1 1 1v4a1 1 0 0 1-1 1zm-3-2h2v-2h-2z"/><path d="M15 16h-4a1 1 0 0 0-1 1v1.2H5.8V12H7a1 1 0 0 0 1-1V7a1 1 0 0 0-1-1H3a1 1 0 0 0-1 1v4a1 1 0 0 0 1 1h1.2v17.8h6.36a.8.8 0 0 0 0-1.6H5.8v-8.4H10V21a1 1 0 0 0 1 1h4a1 1 0 0 0 1-1v-4a1 1 0 0 0-1-1zM4 8h2v2H4zm10 12h-2v-2h2zM34 9a1 1 0 0 0-1-1H10v2h23a1 1 0 0 0 1-1zm-1 9H18v2h15a1 1 0 0 0 0-2zm0 10H18v2h15a1 1 0 0 0 0-2z"/><path fill-opacity="0" d="M0 0h36v36H0z"/></svg>